<mxfile host="app.diagrams.net" modified="2023-11-07T16:51:09.920Z" agent="Mozilla/5.0 (Windows NT 10.0; Win64; x64) AppleWebKit/537.36 (KHTML, like Gecko) Chrome/118.0.0.0 Safari/537.36" etag="TzMEfQQuqavb6zkez4zG" version="22.0.8" type="google">
  <diagram name="Page-1" id="skjke5eDI_P5yauYthu1">
    <mxGraphModel grid="1" page="1" gridSize="10" guides="1" tooltips="1" connect="1" arrows="1" fold="1" pageScale="1" pageWidth="827" pageHeight="1169" math="0" shadow="0">
      <root>
        <mxCell id="0" />
        <mxCell id="1" parent="0" />
        <mxCell id="j_9leVBoOws6hj34kgSr-9" style="edgeStyle=orthogonalEdgeStyle;rounded=0;orthogonalLoop=1;jettySize=auto;html=1;exitX=0.5;exitY=1;exitDx=0;exitDy=0;entryX=0.5;entryY=0;entryDx=0;entryDy=0;" edge="1" parent="1" source="j_9leVBoOws6hj34kgSr-3" target="j_9leVBoOws6hj34kgSr-4">
          <mxGeometry relative="1" as="geometry">
            <mxPoint x="300" y="420" as="targetPoint" />
          </mxGeometry>
        </mxCell>
        <mxCell id="j_9leVBoOws6hj34kgSr-11" style="edgeStyle=orthogonalEdgeStyle;rounded=0;orthogonalLoop=1;jettySize=auto;html=1;exitX=0.5;exitY=1;exitDx=0;exitDy=0;entryX=0.5;entryY=0;entryDx=0;entryDy=0;" edge="1" parent="1" source="j_9leVBoOws6hj34kgSr-3" target="j_9leVBoOws6hj34kgSr-6">
          <mxGeometry relative="1" as="geometry" />
        </mxCell>
        <mxCell id="j_9leVBoOws6hj34kgSr-3" value="Load balancer" style="rounded=0;whiteSpace=wrap;html=1;" vertex="1" parent="1">
          <mxGeometry x="354" y="290" width="120" height="60" as="geometry" />
        </mxCell>
        <mxCell id="j_9leVBoOws6hj34kgSr-17" style="edgeStyle=orthogonalEdgeStyle;rounded=0;orthogonalLoop=1;jettySize=auto;html=1;exitX=0.5;exitY=1;exitDx=0;exitDy=0;entryX=0.5;entryY=0;entryDx=0;entryDy=0;" edge="1" parent="1" source="j_9leVBoOws6hj34kgSr-4" target="j_9leVBoOws6hj34kgSr-7">
          <mxGeometry relative="1" as="geometry">
            <mxPoint x="300" y="480" as="sourcePoint" />
          </mxGeometry>
        </mxCell>
        <mxCell id="j_9leVBoOws6hj34kgSr-4" value="API" style="rounded=0;whiteSpace=wrap;html=1;" vertex="1" parent="1">
          <mxGeometry x="234" y="400" width="120" height="60" as="geometry" />
        </mxCell>
        <mxCell id="j_9leVBoOws6hj34kgSr-18" style="edgeStyle=orthogonalEdgeStyle;rounded=0;orthogonalLoop=1;jettySize=auto;html=1;exitX=0.5;exitY=1;exitDx=0;exitDy=0;entryX=0.5;entryY=0;entryDx=0;entryDy=0;" edge="1" parent="1" source="j_9leVBoOws6hj34kgSr-6" target="j_9leVBoOws6hj34kgSr-7">
          <mxGeometry relative="1" as="geometry" />
        </mxCell>
        <mxCell id="j_9leVBoOws6hj34kgSr-6" value="API" style="rounded=0;whiteSpace=wrap;html=1;" vertex="1" parent="1">
          <mxGeometry x="470" y="400" width="120" height="60" as="geometry" />
        </mxCell>
        <mxCell id="j_9leVBoOws6hj34kgSr-7" value="DB" style="rounded=0;whiteSpace=wrap;html=1;" vertex="1" parent="1">
          <mxGeometry x="354" y="540" width="120" height="60" as="geometry" />
        </mxCell>
        <mxCell id="j_9leVBoOws6hj34kgSr-12" value="" style="endArrow=none;dashed=1;html=1;dashPattern=1 3;strokeWidth=2;rounded=0;" edge="1" parent="1">
          <mxGeometry width="50" height="50" relative="1" as="geometry">
            <mxPoint x="403.5" y="459" as="sourcePoint" />
            <mxPoint x="423.5" y="459" as="targetPoint" />
          </mxGeometry>
        </mxCell>
        <mxCell id="O5Y3M7-ZitxmLwxQ_2Tn-5" style="edgeStyle=orthogonalEdgeStyle;rounded=0;orthogonalLoop=1;jettySize=auto;html=1;exitX=0.5;exitY=0.5;exitDx=0;exitDy=0;exitPerimeter=0;entryX=0.5;entryY=0;entryDx=0;entryDy=0;" edge="1" parent="1" source="j_9leVBoOws6hj34kgSr-14" target="O5Y3M7-ZitxmLwxQ_2Tn-1">
          <mxGeometry relative="1" as="geometry" />
        </mxCell>
        <mxCell id="j_9leVBoOws6hj34kgSr-14" value="User" style="shape=umlActor;verticalLabelPosition=bottom;verticalAlign=top;html=1;outlineConnect=0;" vertex="1" parent="1">
          <mxGeometry x="279" y="60" width="30" height="60" as="geometry" />
        </mxCell>
        <mxCell id="O5Y3M7-ZitxmLwxQ_2Tn-4" style="edgeStyle=orthogonalEdgeStyle;rounded=0;orthogonalLoop=1;jettySize=auto;html=1;exitX=0.5;exitY=1;exitDx=0;exitDy=0;entryX=0.5;entryY=0;entryDx=0;entryDy=0;" edge="1" parent="1" source="O5Y3M7-ZitxmLwxQ_2Tn-1" target="j_9leVBoOws6hj34kgSr-3">
          <mxGeometry relative="1" as="geometry" />
        </mxCell>
        <mxCell id="O5Y3M7-ZitxmLwxQ_2Tn-1" value="Frontend" style="rounded=0;whiteSpace=wrap;html=1;" vertex="1" parent="1">
          <mxGeometry x="354" y="170" width="120" height="60" as="geometry" />
        </mxCell>
      </root>
    </mxGraphModel>
  </diagram>
</mxfile>
